<svg xmlns="http://www.w3.org/2000/svg" xmlns:xlink="http://www.w3.org/1999/xlink" viewBox="0 0 1072.54 68"><defs><style>.cls-1{fill:url(#radial-gradient);}.cls-2{fill:url(#radial-gradient-2);}.cls-3{fill:url(#radial-gradient-3);}.cls-4{fill:url(#radial-gradient-4);}.cls-5{fill:url(#radial-gradient-5);}.cls-6{fill:none;stroke:#000;stroke-linecap:round;stroke-linejoin:round;stroke-width:5px;}</style><radialGradient id="radial-gradient" cx="899.69" cy="232.35" r="0.5" gradientTransform="matrix(1, 0, 0, -1, 0, 296)" gradientUnits="userSpaceOnUse"><stop offset="0" stop-color="#f5e13f"/><stop offset="0.24" stop-color="#f3df3d"/><stop offset="0.3" stop-color="#f1dc3a"/><stop offset="0.85" stop-color="#dbc01f"/><stop offset="0.88" stop-color="#ddbf17"/><stop offset="0.93" stop-color="#e0be0c"/><stop offset="0.98" stop-color="#e1be08"/></radialGradient><radialGradient id="radial-gradient-2" cx="898.19" cy="234.35" xlink:href="#radial-gradient"/><radialGradient id="radial-gradient-3" cx="882.75" cy="234.35" r="0.57" xlink:href="#radial-gradient"/><radialGradient id="radial-gradient-4" cx="40.34" cy="262" r="23.26" xlink:href="#radial-gradient"/><radialGradient id="radial-gradient-5" cx="14.17" cy="263.47" r="15.55" xlink:href="#radial-gradient"/></defs><title>Asset 1</title><g id="Layer_2" data-name="Layer 2"><g id="Layer_1-2" data-name="Layer 1"><path class="cls-1" d="M1058.38,15.74c6.44,0,11.66,8.35,11.66,18.65S1064.82,53,1058.38,53s-11.67-8.35-11.67-18.65S1051.94,15.74,1058.38,15.74Z"/><polygon class="cls-2" points="49.84 19.5 1016.84 18.5 1019.84 18.5 1019.84 44.5 1017.34 44.5 50.34 45.5 49.84 45.5 49.84 19.5"/><path class="cls-3" d="M1041.34,56a9.5,9.5,0,0,1-9.5,9.5h-2.5a9.5,9.5,0,0,1-9.5-9.5V12a9.5,9.5,0,0,1,9.5-9.5h2.5a9.5,9.5,0,0,1,9.5,9.5Z"/><path class="cls-4" d="M49.84,45.5V56a9.5,9.5,0,1,1-19,0V12a9.5,9.5,0,1,1,19,0V45.5Z"/><path class="cls-5" d="M14.17,13.88c6.44,0,11.66,8.34,11.66,18.64S20.61,51.17,14.17,51.17,2.5,42.82,2.5,32.52,7.72,13.88,14.17,13.88Z"/><line class="cls-6" x1="49.84" y1="19.5" x2="1016.84" y2="18.5"/><path class="cls-6" d="M49.84,45.5V56a9.5,9.5,0,1,1-19,0V12a9.5,9.5,0,1,1,19,0V45.5Z"/><path class="cls-6" d="M25.83,32.52c0,10.3-5.22,18.65-11.66,18.65S2.5,42.82,2.5,32.52,7.72,13.88,14.17,13.88,25.83,22.22,25.83,32.52Z"/><path class="cls-6" d="M1019.84,18.5V12a9.5,9.5,0,0,1,9.5-9.5h2.5a9.5,9.5,0,0,1,9.5,9.5V56a9.5,9.5,0,0,1-9.5,9.5h-2.5a9.5,9.5,0,0,1-9.5-9.5V18.5Z"/><path class="cls-6" d="M1070,34.39c0,10.3-5.22,18.65-11.66,18.65s-11.67-8.35-11.67-18.65,5.23-18.65,11.67-18.65S1070,24.09,1070,34.39Z"/><line class="cls-6" x1="50.34" y1="45.5" x2="1017.34" y2="44.5"/></g></g></svg>