<?xml version="1.0" encoding="utf-8"?>
<!-- Generator: Adobe Illustrator 23.0.6, SVG Export Plug-In . SVG Version: 6.00 Build 0)  -->
<svg version="1.1" xmlns="http://www.w3.org/2000/svg" xmlns:xlink="http://www.w3.org/1999/xlink" x="0px" y="0px"
	 viewBox="0 0 1084 626" style="enable-background:new 0 0 1084 626;" xml:space="preserve">
<style type="text/css">
	.st0{fill:#C69C6D;stroke:#000000;stroke-miterlimit:10;}
	.st1{fill:url(#SVGID_1_);}
	.st2{fill:url(#SVGID_2_);}
	.st3{fill:url(#SVGID_3_);}
	.st4{fill:url(#SVGID_4_);}
	.st5{fill:url(#SVGID_5_);}
	.st6{fill:none;stroke:#000000;stroke-width:5;stroke-linecap:round;stroke-linejoin:round;}
	.st7{fill:url(#SVGID_6_);}
	.st8{fill:url(#SVGID_7_);}
	.st9{fill:url(#SVGID_8_);}
	.st10{fill:url(#SVGID_9_);}
	.st11{fill:url(#SVGID_10_);}
</style>
<g id="Layer_3">
	<rect x="67.5" y="32.5" class="st0" width="948" height="558"/>
</g>
<g id="Layer_1">
	<g>
		<g id="Layer_1-2">
			
				<radialGradient id="SVGID_1_" cx="905.8517" cy="563.3727" r="0.5" gradientTransform="matrix(1 0 0 1 0 -496)" gradientUnits="userSpaceOnUse">
				<stop  offset="0" style="stop-color:#F5E13F"/>
				<stop  offset="0.24" style="stop-color:#F3DF3D"/>
				<stop  offset="0.3" style="stop-color:#F1DC3A"/>
				<stop  offset="0.85" style="stop-color:#DBC01F"/>
				<stop  offset="0.88" style="stop-color:#DDBF17"/>
				<stop  offset="0.93" style="stop-color:#E0BE0C"/>
				<stop  offset="0.98" style="stop-color:#E1BE08"/>
			</radialGradient>
			<path class="st1" d="M1064.54,19.46c6.44,0,11.66,8.35,11.66,18.65s-5.22,18.61-11.66,18.61s-11.67-8.35-11.67-18.65
				S1058.1,19.46,1064.54,19.46z"/>
			
				<radialGradient id="SVGID_2_" cx="904.3517" cy="465.9273" r="0.5" gradientTransform="matrix(1 0 0 -1 0 704)" gradientUnits="userSpaceOnUse">
				<stop  offset="0" style="stop-color:#F5E13F"/>
				<stop  offset="0.24" style="stop-color:#F3DF3D"/>
				<stop  offset="0.3" style="stop-color:#F1DC3A"/>
				<stop  offset="0.85" style="stop-color:#DBC01F"/>
				<stop  offset="0.88" style="stop-color:#DDBF17"/>
				<stop  offset="0.93" style="stop-color:#E0BE0C"/>
				<stop  offset="0.98" style="stop-color:#E1BE08"/>
			</radialGradient>
			<polygon class="st2" points="56,23.22 1023,22.22 1026,22.22 1026,48.22 1023.5,48.22 56.5,49.22 56,49.22 			"/>
			
				<radialGradient id="SVGID_3_" cx="888.9117" cy="465.9273" r="0.57" gradientTransform="matrix(1 0 0 -1 0 704)" gradientUnits="userSpaceOnUse">
				<stop  offset="0" style="stop-color:#F5E13F"/>
				<stop  offset="0.24" style="stop-color:#F3DF3D"/>
				<stop  offset="0.3" style="stop-color:#F1DC3A"/>
				<stop  offset="0.85" style="stop-color:#DBC01F"/>
				<stop  offset="0.88" style="stop-color:#DDBF17"/>
				<stop  offset="0.93" style="stop-color:#E0BE0C"/>
				<stop  offset="0.98" style="stop-color:#E1BE08"/>
			</radialGradient>
			<path class="st3" d="M1047.5,59.72c0,5.25-4.25,9.5-9.5,9.5h-2.5c-5.25,0-9.5-4.25-9.5-9.5v-44c0-5.25,4.25-9.5,9.5-9.5h2.5
				c5.25,0,9.5,4.25,9.5,9.5V59.72z"/>
			
				<radialGradient id="SVGID_4_" cx="46.5018" cy="438.2773" r="23.26" gradientTransform="matrix(1 0 0 -1 0 704)" gradientUnits="userSpaceOnUse">
				<stop  offset="0" style="stop-color:#F5E13F"/>
				<stop  offset="0.24" style="stop-color:#F3DF3D"/>
				<stop  offset="0.3" style="stop-color:#F1DC3A"/>
				<stop  offset="0.85" style="stop-color:#DBC01F"/>
				<stop  offset="0.88" style="stop-color:#DDBF17"/>
				<stop  offset="0.93" style="stop-color:#E0BE0C"/>
				<stop  offset="0.98" style="stop-color:#E1BE08"/>
			</radialGradient>
			<path class="st4" d="M56,49.22v10.5c0,5.25-4.25,9.5-9.5,9.5s-9.5-4.25-9.5-9.5v-44c0-5.25,4.25-9.5,9.5-9.5s9.5,4.25,9.5,9.5
				V49.22z"/>
			
				<radialGradient id="SVGID_5_" cx="20.3268" cy="436.8073" r="15.55" gradientTransform="matrix(1 0 0 -1 0 704)" gradientUnits="userSpaceOnUse">
				<stop  offset="0" style="stop-color:#F5E13F"/>
				<stop  offset="0.24" style="stop-color:#F3DF3D"/>
				<stop  offset="0.3" style="stop-color:#F1DC3A"/>
				<stop  offset="0.85" style="stop-color:#DBC01F"/>
				<stop  offset="0.88" style="stop-color:#DDBF17"/>
				<stop  offset="0.93" style="stop-color:#E0BE0C"/>
				<stop  offset="0.98" style="stop-color:#E1BE08"/>
			</radialGradient>
			<path class="st5" d="M20.33,17.6c6.44,0,11.66,8.34,11.66,18.64s-5.22,18.65-11.66,18.65S8.66,46.54,8.66,36.24
				S13.88,17.6,20.33,17.6z"/>
			<line class="st6" x1="56" y1="23.22" x2="1023" y2="22.22"/>
			<path class="st6" d="M56,49.22v10.5c0,5.25-4.25,9.5-9.5,9.5s-9.5-4.25-9.5-9.5v-44c0-5.25,4.25-9.5,9.5-9.5s9.5,4.25,9.5,9.5
				V49.22z"/>
			<path class="st6" d="M31.99,36.24c0,10.3-5.22,18.65-11.66,18.65S8.66,46.54,8.66,36.24S13.88,17.6,20.33,17.6
				S31.99,25.94,31.99,36.24z"/>
			<path class="st6" d="M1026,22.22v-6.5c0-5.25,4.25-9.5,9.5-9.5l0,0h2.5c5.25,0,9.5,4.25,9.5,9.5v44c0,5.25-4.25,9.5-9.5,9.5h-2.5
				c-5.25,0-9.5-4.25-9.5-9.5V22.22L1026,22.22z"/>
			<path class="st6" d="M1076.16,38.11c0,10.3-5.22,18.65-11.66,18.65s-11.67-8.35-11.67-18.65s5.23-18.65,11.67-18.65
				S1076.16,27.81,1076.16,38.11z"/>
			<line class="st6" x1="56.5" y1="49.22" x2="1023.5" y2="48.22"/>
		</g>
	</g>
</g>
<g id="Layer_2">
	<g>
		<g id="Layer_1-2_1_">
			
				<radialGradient id="SVGID_6_" cx="905.8517" cy="1115.3727" r="0.5" gradientTransform="matrix(1 0 0 1 0 -496)" gradientUnits="userSpaceOnUse">
				<stop  offset="0" style="stop-color:#F5E13F"/>
				<stop  offset="0.24" style="stop-color:#F3DF3D"/>
				<stop  offset="0.3" style="stop-color:#F1DC3A"/>
				<stop  offset="0.85" style="stop-color:#DBC01F"/>
				<stop  offset="0.88" style="stop-color:#DDBF17"/>
				<stop  offset="0.93" style="stop-color:#E0BE0C"/>
				<stop  offset="0.98" style="stop-color:#E1BE08"/>
			</radialGradient>
			<path class="st7" d="M1064.54,571.46c6.44,0,11.66,8.35,11.66,18.65s-5.22,18.61-11.66,18.61s-11.67-8.35-11.67-18.65
				S1058.1,571.46,1064.54,571.46z"/>
			
				<radialGradient id="SVGID_7_" cx="904.3517" cy="-86.0727" r="0.5" gradientTransform="matrix(1 0 0 -1 0 704)" gradientUnits="userSpaceOnUse">
				<stop  offset="0" style="stop-color:#F5E13F"/>
				<stop  offset="0.24" style="stop-color:#F3DF3D"/>
				<stop  offset="0.3" style="stop-color:#F1DC3A"/>
				<stop  offset="0.85" style="stop-color:#DBC01F"/>
				<stop  offset="0.88" style="stop-color:#DDBF17"/>
				<stop  offset="0.93" style="stop-color:#E0BE0C"/>
				<stop  offset="0.98" style="stop-color:#E1BE08"/>
			</radialGradient>
			<polygon class="st8" points="56,575.22 1023,574.22 1026,574.22 1026,600.22 1023.5,600.22 56.5,601.22 56,601.22 			"/>
			
				<radialGradient id="SVGID_8_" cx="888.9117" cy="-86.0727" r="0.57" gradientTransform="matrix(1 0 0 -1 0 704)" gradientUnits="userSpaceOnUse">
				<stop  offset="0" style="stop-color:#F5E13F"/>
				<stop  offset="0.24" style="stop-color:#F3DF3D"/>
				<stop  offset="0.3" style="stop-color:#F1DC3A"/>
				<stop  offset="0.85" style="stop-color:#DBC01F"/>
				<stop  offset="0.88" style="stop-color:#DDBF17"/>
				<stop  offset="0.93" style="stop-color:#E0BE0C"/>
				<stop  offset="0.98" style="stop-color:#E1BE08"/>
			</radialGradient>
			<path class="st9" d="M1047.5,611.72c0,5.25-4.25,9.5-9.5,9.5h-2.5c-5.25,0-9.5-4.25-9.5-9.5v-44c0-5.25,4.25-9.5,9.5-9.5h2.5
				c5.25,0,9.5,4.25,9.5,9.5V611.72z"/>
			
				<radialGradient id="SVGID_9_" cx="46.5018" cy="-113.7227" r="23.26" gradientTransform="matrix(1 0 0 -1 0 704)" gradientUnits="userSpaceOnUse">
				<stop  offset="0" style="stop-color:#F5E13F"/>
				<stop  offset="0.24" style="stop-color:#F3DF3D"/>
				<stop  offset="0.3" style="stop-color:#F1DC3A"/>
				<stop  offset="0.85" style="stop-color:#DBC01F"/>
				<stop  offset="0.88" style="stop-color:#DDBF17"/>
				<stop  offset="0.93" style="stop-color:#E0BE0C"/>
				<stop  offset="0.98" style="stop-color:#E1BE08"/>
			</radialGradient>
			<path class="st10" d="M56,601.22v10.5c0,5.25-4.25,9.5-9.5,9.5s-9.5-4.25-9.5-9.5v-44c0-5.25,4.25-9.5,9.5-9.5s9.5,4.25,9.5,9.5
				V601.22z"/>
			
				<radialGradient id="SVGID_10_" cx="20.3268" cy="-115.1927" r="15.55" gradientTransform="matrix(1 0 0 -1 0 704)" gradientUnits="userSpaceOnUse">
				<stop  offset="0" style="stop-color:#F5E13F"/>
				<stop  offset="0.24" style="stop-color:#F3DF3D"/>
				<stop  offset="0.3" style="stop-color:#F1DC3A"/>
				<stop  offset="0.85" style="stop-color:#DBC01F"/>
				<stop  offset="0.88" style="stop-color:#DDBF17"/>
				<stop  offset="0.93" style="stop-color:#E0BE0C"/>
				<stop  offset="0.98" style="stop-color:#E1BE08"/>
			</radialGradient>
			<path class="st11" d="M20.33,569.6c6.44,0,11.66,8.34,11.66,18.64s-5.22,18.65-11.66,18.65s-11.67-8.35-11.67-18.65
				S13.88,569.6,20.33,569.6z"/>
			<line class="st6" x1="56" y1="575.22" x2="1023" y2="574.22"/>
			<path class="st6" d="M56,601.22v10.5c0,5.25-4.25,9.5-9.5,9.5s-9.5-4.25-9.5-9.5v-44c0-5.25,4.25-9.5,9.5-9.5s9.5,4.25,9.5,9.5
				V601.22z"/>
			<path class="st6" d="M31.99,588.24c0,10.3-5.22,18.65-11.66,18.65s-11.67-8.35-11.67-18.65s5.22-18.64,11.67-18.64
				S31.99,577.94,31.99,588.24z"/>
			<path class="st6" d="M1026,574.22v-6.5c0-5.25,4.25-9.5,9.5-9.5l0,0h2.5c5.25,0,9.5,4.25,9.5,9.5v44c0,5.25-4.25,9.5-9.5,9.5
				h-2.5c-5.25,0-9.5-4.25-9.5-9.5V574.22L1026,574.22z"/>
			<path class="st6" d="M1076.16,590.11c0,10.3-5.22,18.65-11.66,18.65s-11.67-8.35-11.67-18.65c0-10.3,5.23-18.65,11.67-18.65
				S1076.16,579.81,1076.16,590.11z"/>
			<line class="st6" x1="56.5" y1="601.22" x2="1023.5" y2="600.22"/>
		</g>
	</g>
</g>
</svg>
