<svg id="Layer_1" data-name="Layer 1" xmlns="http://www.w3.org/2000/svg" viewBox="0 0 735 735"><defs><style>.cls-1{fill:blue;}</style></defs><title>blue_block</title><rect class="cls-1" x="0.5" y="0.5" width="734" height="734" rx="129.44"/><path d="M622.06,14A129,129,0,0,1,751,142.94V618.06A129,129,0,0,1,622.06,747H146.94A129,129,0,0,1,18,618.06V142.94A129,129,0,0,1,146.94,14H622.06m0-1H146.94A129.94,129.94,0,0,0,17,142.94V618.06A129.94,129.94,0,0,0,146.94,748H622.06A129.94,129.94,0,0,0,752,618.06V142.94A129.94,129.94,0,0,0,622.06,13Z" transform="translate(-17 -13)"/></svg>