<?xml version="1.0" encoding="utf-8"?>
<!-- Generator: Adobe Illustrator 23.0.6, SVG Export Plug-In . SVG Version: 6.00 Build 0)  -->
<svg version="1.1" xmlns="http://www.w3.org/2000/svg" xmlns:xlink="http://www.w3.org/1999/xlink" x="0px" y="0px"
	 viewBox="0 0 1084 1407" style="enable-background:new 0 0 1084 1407;" xml:space="preserve">
<style type="text/css">
	.st0{fill:#C69C6D;stroke:#000000;stroke-miterlimit:10;}
	.st1{fill:url(#SVGID_1_);}
	.st2{fill:url(#SVGID_2_);}
	.st3{fill:url(#SVGID_3_);}
	.st4{fill:url(#SVGID_4_);}
	.st5{fill:url(#SVGID_5_);}
	.st6{fill:none;stroke:#000000;stroke-width:5;stroke-linecap:round;stroke-linejoin:round;}
	.st7{fill:url(#SVGID_6_);}
	.st8{fill:url(#SVGID_7_);}
	.st9{fill:url(#SVGID_8_);}
	.st10{fill:url(#SVGID_9_);}
	.st11{fill:url(#SVGID_10_);}
</style>
<g id="Layer_3">
	<rect x="67.5" y="28.5" class="st0" width="948" height="1343"/>
</g>
<g id="Layer_1">
	<g>
		<g id="Layer_1-2">
			
				<radialGradient id="SVGID_1_" cx="905.8517" cy="565.373" r="0.5" gradientTransform="matrix(1 0 0 1 0 -496)" gradientUnits="userSpaceOnUse">
				<stop  offset="0" style="stop-color:#F5E13F"/>
				<stop  offset="0.24" style="stop-color:#F3DF3D"/>
				<stop  offset="0.3" style="stop-color:#F1DC3A"/>
				<stop  offset="0.85" style="stop-color:#DBC01F"/>
				<stop  offset="0.88" style="stop-color:#DDBF17"/>
				<stop  offset="0.93" style="stop-color:#E0BE0C"/>
				<stop  offset="0.98" style="stop-color:#E1BE08"/>
			</radialGradient>
			<path class="st1" d="M1064.54,21.46c6.44,0,11.66,8.35,11.66,18.65s-5.22,18.61-11.66,18.61s-11.67-8.35-11.67-18.65
				S1058.1,21.46,1064.54,21.46z"/>
			
				<radialGradient id="SVGID_2_" cx="904.3517" cy="2025.927" r="0.5" gradientTransform="matrix(1 0 0 -1 0 2266)" gradientUnits="userSpaceOnUse">
				<stop  offset="0" style="stop-color:#F5E13F"/>
				<stop  offset="0.24" style="stop-color:#F3DF3D"/>
				<stop  offset="0.3" style="stop-color:#F1DC3A"/>
				<stop  offset="0.85" style="stop-color:#DBC01F"/>
				<stop  offset="0.88" style="stop-color:#DDBF17"/>
				<stop  offset="0.93" style="stop-color:#E0BE0C"/>
				<stop  offset="0.98" style="stop-color:#E1BE08"/>
			</radialGradient>
			<polygon class="st2" points="56,25.22 1023,24.22 1026,24.22 1026,50.22 1023.5,50.22 56.5,51.22 56,51.22 			"/>
			
				<radialGradient id="SVGID_3_" cx="888.9117" cy="2025.927" r="0.57" gradientTransform="matrix(1 0 0 -1 0 2266)" gradientUnits="userSpaceOnUse">
				<stop  offset="0" style="stop-color:#F5E13F"/>
				<stop  offset="0.24" style="stop-color:#F3DF3D"/>
				<stop  offset="0.3" style="stop-color:#F1DC3A"/>
				<stop  offset="0.85" style="stop-color:#DBC01F"/>
				<stop  offset="0.88" style="stop-color:#DDBF17"/>
				<stop  offset="0.93" style="stop-color:#E0BE0C"/>
				<stop  offset="0.98" style="stop-color:#E1BE08"/>
			</radialGradient>
			<path class="st3" d="M1047.5,61.72c0,5.25-4.25,9.5-9.5,9.5h-2.5c-5.25,0-9.5-4.25-9.5-9.5v-44c0-5.25,4.25-9.5,9.5-9.5h2.5
				c5.25,0,9.5,4.25,9.5,9.5V61.72z"/>
			
				<radialGradient id="SVGID_4_" cx="46.5018" cy="1998.277" r="23.26" gradientTransform="matrix(1 0 0 -1 0 2266)" gradientUnits="userSpaceOnUse">
				<stop  offset="0" style="stop-color:#F5E13F"/>
				<stop  offset="0.24" style="stop-color:#F3DF3D"/>
				<stop  offset="0.3" style="stop-color:#F1DC3A"/>
				<stop  offset="0.85" style="stop-color:#DBC01F"/>
				<stop  offset="0.88" style="stop-color:#DDBF17"/>
				<stop  offset="0.93" style="stop-color:#E0BE0C"/>
				<stop  offset="0.98" style="stop-color:#E1BE08"/>
			</radialGradient>
			<path class="st4" d="M56,51.22v10.5c0,5.25-4.25,9.5-9.5,9.5s-9.5-4.25-9.5-9.5v-44c0-5.25,4.25-9.5,9.5-9.5s9.5,4.25,9.5,9.5
				V51.22z"/>
			
				<radialGradient id="SVGID_5_" cx="20.3268" cy="1996.807" r="15.55" gradientTransform="matrix(1 0 0 -1 0 2266)" gradientUnits="userSpaceOnUse">
				<stop  offset="0" style="stop-color:#F5E13F"/>
				<stop  offset="0.24" style="stop-color:#F3DF3D"/>
				<stop  offset="0.3" style="stop-color:#F1DC3A"/>
				<stop  offset="0.85" style="stop-color:#DBC01F"/>
				<stop  offset="0.88" style="stop-color:#DDBF17"/>
				<stop  offset="0.93" style="stop-color:#E0BE0C"/>
				<stop  offset="0.98" style="stop-color:#E1BE08"/>
			</radialGradient>
			<path class="st5" d="M20.33,19.6c6.44,0,11.66,8.34,11.66,18.64s-5.22,18.65-11.66,18.65S8.66,48.54,8.66,38.24
				S13.88,19.6,20.33,19.6z"/>
			<line class="st6" x1="56" y1="25.22" x2="1023" y2="24.22"/>
			<path class="st6" d="M56,51.22v10.5c0,5.25-4.25,9.5-9.5,9.5s-9.5-4.25-9.5-9.5v-44c0-5.25,4.25-9.5,9.5-9.5s9.5,4.25,9.5,9.5
				V51.22z"/>
			<path class="st6" d="M31.99,38.24c0,10.3-5.22,18.65-11.66,18.65S8.66,48.54,8.66,38.24S13.88,19.6,20.33,19.6
				S31.99,27.94,31.99,38.24z"/>
			<path class="st6" d="M1026,24.22v-6.5c0-5.25,4.25-9.5,9.5-9.5l0,0h2.5c5.25,0,9.5,4.25,9.5,9.5v44c0,5.25-4.25,9.5-9.5,9.5h-2.5
				c-5.25,0-9.5-4.25-9.5-9.5V24.22L1026,24.22z"/>
			<path class="st6" d="M1076.16,40.11c0,10.3-5.22,18.65-11.66,18.65s-11.67-8.35-11.67-18.65s5.23-18.65,11.67-18.65
				S1076.16,29.81,1076.16,40.11z"/>
			<line class="st6" x1="56.5" y1="51.22" x2="1023.5" y2="50.22"/>
		</g>
	</g>
</g>
<g id="Layer_2">
	<g>
		<g id="Layer_1-2_1_">
			
				<radialGradient id="SVGID_6_" cx="905.8517" cy="1896.3727" r="0.5" gradientTransform="matrix(1 0 0 1 0 -496)" gradientUnits="userSpaceOnUse">
				<stop  offset="0" style="stop-color:#F5E13F"/>
				<stop  offset="0.24" style="stop-color:#F3DF3D"/>
				<stop  offset="0.3" style="stop-color:#F1DC3A"/>
				<stop  offset="0.85" style="stop-color:#DBC01F"/>
				<stop  offset="0.88" style="stop-color:#DDBF17"/>
				<stop  offset="0.93" style="stop-color:#E0BE0C"/>
				<stop  offset="0.98" style="stop-color:#E1BE08"/>
			</radialGradient>
			<path class="st7" d="M1064.54,1352.46c6.44,0,11.66,8.35,11.66,18.65c0,10.3-5.22,18.61-11.66,18.61s-11.67-8.35-11.67-18.65
				C1052.87,1360.77,1058.1,1352.46,1064.54,1352.46z"/>
			
				<radialGradient id="SVGID_7_" cx="904.3517" cy="694.9273" r="0.5" gradientTransform="matrix(1 0 0 -1 0 2266)" gradientUnits="userSpaceOnUse">
				<stop  offset="0" style="stop-color:#F5E13F"/>
				<stop  offset="0.24" style="stop-color:#F3DF3D"/>
				<stop  offset="0.3" style="stop-color:#F1DC3A"/>
				<stop  offset="0.85" style="stop-color:#DBC01F"/>
				<stop  offset="0.88" style="stop-color:#DDBF17"/>
				<stop  offset="0.93" style="stop-color:#E0BE0C"/>
				<stop  offset="0.98" style="stop-color:#E1BE08"/>
			</radialGradient>
			<polygon class="st8" points="56,1356.22 1023,1355.22 1026,1355.22 1026,1381.22 1023.5,1381.22 56.5,1382.22 56,1382.22 			"/>
			
				<radialGradient id="SVGID_8_" cx="888.9117" cy="694.9273" r="0.57" gradientTransform="matrix(1 0 0 -1 0 2266)" gradientUnits="userSpaceOnUse">
				<stop  offset="0" style="stop-color:#F5E13F"/>
				<stop  offset="0.24" style="stop-color:#F3DF3D"/>
				<stop  offset="0.3" style="stop-color:#F1DC3A"/>
				<stop  offset="0.85" style="stop-color:#DBC01F"/>
				<stop  offset="0.88" style="stop-color:#DDBF17"/>
				<stop  offset="0.93" style="stop-color:#E0BE0C"/>
				<stop  offset="0.98" style="stop-color:#E1BE08"/>
			</radialGradient>
			<path class="st9" d="M1047.5,1392.72c0,5.25-4.25,9.5-9.5,9.5h-2.5c-5.25,0-9.5-4.25-9.5-9.5v-44c0-5.25,4.25-9.5,9.5-9.5h2.5
				c5.25,0,9.5,4.25,9.5,9.5V1392.72z"/>
			
				<radialGradient id="SVGID_9_" cx="46.5018" cy="667.2773" r="23.26" gradientTransform="matrix(1 0 0 -1 0 2266)" gradientUnits="userSpaceOnUse">
				<stop  offset="0" style="stop-color:#F5E13F"/>
				<stop  offset="0.24" style="stop-color:#F3DF3D"/>
				<stop  offset="0.3" style="stop-color:#F1DC3A"/>
				<stop  offset="0.85" style="stop-color:#DBC01F"/>
				<stop  offset="0.88" style="stop-color:#DDBF17"/>
				<stop  offset="0.93" style="stop-color:#E0BE0C"/>
				<stop  offset="0.98" style="stop-color:#E1BE08"/>
			</radialGradient>
			<path class="st10" d="M56,1382.22v10.5c0,5.25-4.25,9.5-9.5,9.5s-9.5-4.25-9.5-9.5v-44c0-5.25,4.25-9.5,9.5-9.5s9.5,4.25,9.5,9.5
				V1382.22z"/>
			
				<radialGradient id="SVGID_10_" cx="20.3268" cy="665.8073" r="15.55" gradientTransform="matrix(1 0 0 -1 0 2266)" gradientUnits="userSpaceOnUse">
				<stop  offset="0" style="stop-color:#F5E13F"/>
				<stop  offset="0.24" style="stop-color:#F3DF3D"/>
				<stop  offset="0.3" style="stop-color:#F1DC3A"/>
				<stop  offset="0.85" style="stop-color:#DBC01F"/>
				<stop  offset="0.88" style="stop-color:#DDBF17"/>
				<stop  offset="0.93" style="stop-color:#E0BE0C"/>
				<stop  offset="0.98" style="stop-color:#E1BE08"/>
			</radialGradient>
			<path class="st11" d="M20.33,1350.6c6.44,0,11.66,8.34,11.66,18.64c0,10.3-5.22,18.65-11.66,18.65s-11.67-8.35-11.67-18.65
				C8.66,1358.94,13.88,1350.6,20.33,1350.6z"/>
			<line class="st6" x1="56" y1="1356.22" x2="1023" y2="1355.22"/>
			<path class="st6" d="M56,1382.22v10.5c0,5.25-4.25,9.5-9.5,9.5s-9.5-4.25-9.5-9.5v-44c0-5.25,4.25-9.5,9.5-9.5s9.5,4.25,9.5,9.5
				V1382.22z"/>
			<path class="st6" d="M31.99,1369.24c0,10.3-5.22,18.65-11.66,18.65s-11.67-8.35-11.67-18.65c0-10.3,5.22-18.64,11.67-18.64
				S31.99,1358.94,31.99,1369.24z"/>
			<path class="st6" d="M1026,1355.22v-6.5c0-5.25,4.25-9.5,9.5-9.5l0,0h2.5c5.25,0,9.5,4.25,9.5,9.5v44c0,5.25-4.25,9.5-9.5,9.5
				h-2.5c-5.25,0-9.5-4.25-9.5-9.5V1355.22L1026,1355.22z"/>
			<path class="st6" d="M1076.16,1371.11c0,10.3-5.22,18.65-11.66,18.65s-11.67-8.35-11.67-18.65c0-10.3,5.23-18.65,11.67-18.65
				S1076.16,1360.81,1076.16,1371.11z"/>
			<line class="st6" x1="56.5" y1="1382.22" x2="1023.5" y2="1381.22"/>
		</g>
	</g>
</g>
</svg>
