<?xml version="1.0" encoding="utf-8"?>
<!-- Generator: Adobe Illustrator 23.0.6, SVG Export Plug-In . SVG Version: 6.00 Build 0)  -->
<svg version="1.1" id="Layer_1" xmlns="http://www.w3.org/2000/svg" xmlns:xlink="http://www.w3.org/1999/xlink" x="0px" y="0px"
	 viewBox="0 0 1366 768" style="enable-background:new 0 0 1366 768;" xml:space="preserve">
<style type="text/css">
	.st0{fill:url(#SVGID_1_);}
	.st1{fill:url(#SVGID_2_);}
	.st2{fill:url(#SVGID_3_);}
	.st3{fill:url(#SVGID_4_);}
	.st4{fill:url(#SVGID_5_);}
	.st5{fill:none;stroke:#000000;stroke-width:5;stroke-linecap:round;stroke-linejoin:round;}
</style>
<g id="XMLID_1_">
	<g>
		<radialGradient id="SVGID_1_" cx="1035.3478" cy="299.6522" r="0.5" gradientUnits="userSpaceOnUse">
			<stop  offset="0" style="stop-color:#F5E13F"/>
			<stop  offset="0.2438" style="stop-color:#F3DF3D"/>
			<stop  offset="0.2969" style="stop-color:#F1DC3A"/>
			<stop  offset="0.8537" style="stop-color:#DBC01F"/>
			<stop  offset="0.8775" style="stop-color:#DDBF17"/>
			<stop  offset="0.9282" style="stop-color:#E0BE0C"/>
			<stop  offset="0.9828" style="stop-color:#E1BE08"/>
		</radialGradient>
		<path class="st0" d="M1194.04,251.74c6.44,0,11.66,8.35,11.66,18.65c0,10.3-5.22,18.65-11.66,18.65
			c-6.44,0-11.67-8.35-11.67-18.65C1182.37,260.09,1187.6,251.74,1194.04,251.74z"/>
		<radialGradient id="SVGID_2_" cx="1033.8462" cy="297.6522" r="0.502" gradientUnits="userSpaceOnUse">
			<stop  offset="0" style="stop-color:#F5E13F"/>
			<stop  offset="0.2438" style="stop-color:#F3DF3D"/>
			<stop  offset="0.2969" style="stop-color:#F1DC3A"/>
			<stop  offset="0.8537" style="stop-color:#DBC01F"/>
			<stop  offset="0.8775" style="stop-color:#DDBF17"/>
			<stop  offset="0.9282" style="stop-color:#E0BE0C"/>
			<stop  offset="0.9828" style="stop-color:#E1BE08"/>
		</radialGradient>
		<polygon class="st1" points="185.5,255.5 1152.5,254.5 1155.5,254.5 1155.5,280.5 1153,280.5 186,281.5 185.5,281.5 		"/>
		<radialGradient id="SVGID_3_" cx="1018.4067" cy="297.6522" r="0.5657" gradientUnits="userSpaceOnUse">
			<stop  offset="0" style="stop-color:#F5E13F"/>
			<stop  offset="0.2438" style="stop-color:#F3DF3D"/>
			<stop  offset="0.2969" style="stop-color:#F1DC3A"/>
			<stop  offset="0.8537" style="stop-color:#DBC01F"/>
			<stop  offset="0.8775" style="stop-color:#DDBF17"/>
			<stop  offset="0.9282" style="stop-color:#E0BE0C"/>
			<stop  offset="0.9828" style="stop-color:#E1BE08"/>
		</radialGradient>
		<path class="st2" d="M1177,292c0,5.25-4.25,9.5-9.5,9.5h-2.5c-5.25,0-9.5-4.25-9.5-9.5v-11.5v-26V248c0-5.25,4.25-9.5,9.5-9.5h2.5
			c5.25,0,9.5,4.25,9.5,9.5V292z"/>
		<radialGradient id="SVGID_4_" cx="176" cy="270" r="23.2648" gradientUnits="userSpaceOnUse">
			<stop  offset="0" style="stop-color:#F5E13F"/>
			<stop  offset="0.2438" style="stop-color:#F3DF3D"/>
			<stop  offset="0.2969" style="stop-color:#F1DC3A"/>
			<stop  offset="0.8537" style="stop-color:#DBC01F"/>
			<stop  offset="0.8775" style="stop-color:#DDBF17"/>
			<stop  offset="0.9282" style="stop-color:#E0BE0C"/>
			<stop  offset="0.9828" style="stop-color:#E1BE08"/>
		</radialGradient>
		<path class="st3" d="M185.5,281.5V292c0,5.25-4.25,9.5-9.5,9.5s-9.5-4.25-9.5-9.5v-44c0-5.25,4.25-9.5,9.5-9.5
			c2.62,0,5,1.06,6.72,2.78s2.78,4.1,2.78,6.72v7.5V281.5z"/>
		<radialGradient id="SVGID_5_" cx="149.825" cy="268.525" r="15.5517" gradientUnits="userSpaceOnUse">
			<stop  offset="0" style="stop-color:#F5E13F"/>
			<stop  offset="0.2438" style="stop-color:#F3DF3D"/>
			<stop  offset="0.2969" style="stop-color:#F1DC3A"/>
			<stop  offset="0.8537" style="stop-color:#DBC01F"/>
			<stop  offset="0.8775" style="stop-color:#DDBF17"/>
			<stop  offset="0.9282" style="stop-color:#E0BE0C"/>
			<stop  offset="0.9828" style="stop-color:#E1BE08"/>
		</radialGradient>
		<path class="st4" d="M149.83,249.88c6.44,0,11.66,8.34,11.66,18.64c0,10.3-5.22,18.65-11.66,18.65c-6.45,0-11.67-8.35-11.67-18.65
			C138.16,258.22,143.38,249.88,149.83,249.88z"/>
	</g>
	<g>
		<line class="st5" x1="185.5" y1="255.5" x2="1152.5" y2="254.5"/>
		<path class="st5" d="M185.5,281.5V292c0,5.25-4.25,9.5-9.5,9.5s-9.5-4.25-9.5-9.5v-44c0-5.25,4.25-9.5,9.5-9.5
			c2.62,0,5,1.06,6.72,2.78s2.78,4.1,2.78,6.72v7.5V281.5z"/>
		<path class="st5" d="M161.49,268.52c0,10.3-5.22,18.65-11.66,18.65c-6.45,0-11.67-8.35-11.67-18.65c0-10.3,5.22-18.64,11.67-18.64
			C156.27,249.88,161.49,258.22,161.49,268.52z"/>
		<path class="st5" d="M1155.5,254.5V248c0-5.25,4.25-9.5,9.5-9.5h2.5c5.25,0,9.5,4.25,9.5,9.5v44c0,5.25-4.25,9.5-9.5,9.5h-2.5
			c-5.25,0-9.5-4.25-9.5-9.5v-11.5V254.5z"/>
		<path class="st5" d="M1205.7,270.39c0,10.3-5.22,18.65-11.66,18.65c-6.44,0-11.67-8.35-11.67-18.65c0-10.3,5.23-18.65,11.67-18.65
			C1200.48,251.74,1205.7,260.09,1205.7,270.39z"/>
		<line class="st5" x1="186" y1="281.5" x2="1153" y2="280.5"/>
	</g>
</g>
</svg>
